<svg width="314" height="209" viewBox="0 0 314 209" fill="none" xmlns="http://www.w3.org/2000/svg">
<path fill-rule="evenodd" clip-rule="evenodd" d="M56.037 208.727V201.77H35.1481V194.812H28.1851L28.1851 180.897H21.2221L21.2221 118.279H14.2592L14.2592 111.321H7.29621L7.29621 104.364H0.333252L0.333252 97.4061H7.29621L7.29621 90.4485H14.2592L14.2592 83.4909H21.2221L21.2221 27.8303H28.1851L28.1851 13.9152H35.1481V6.95758H56.037L56.037 0L257.963 0V6.95758H278.852V13.9152H285.815V27.8303H292.778V83.4909H299.741V90.4485H306.704V97.4061H313.667V104.364H306.704V111.321H299.741V118.279H292.778V180.897H285.815V194.812H278.852V201.77H257.963V208.727L56.037 208.727ZM42.111 173.939L42.111 118.279H35.1481V111.321H28.1851L28.1851 104.364L21.2221 104.364V97.4061H28.1851V90.4485H35.1481V83.4909H42.111L42.111 34.7879L271.889 34.7879V83.4909L278.852 83.4909V90.4485H285.815V97.4061L292.778 97.4061V104.364L285.815 104.364V111.321H278.852V118.279H271.889V173.939L42.111 173.939Z" fill="url(#paint0_linear_6322_102)"/>
<defs>
<linearGradient id="paint0_linear_6322_102" x1="157" y1="208.727" x2="157" y2="0" gradientUnits="userSpaceOnUse">
<stop offset="0.166667" stop-color="#800FFF"/>
<stop offset="0.833333" stop-color="#F50D5A"/>
</linearGradient>
</defs>
</svg>
